<svg width="520" height="240" viewBox="0 0 520 240" xmlns="http://www.w3.org/2000/svg" role="img" aria-label="GitHub coding stats for Nisarg Patel">
  <title>Coding Stats</title>
  <defs>
    <style>
      @import url('https://fonts.googleapis.com/css2?family=JetBrains+Mono:wght@400;500;600&amp;family=DM+Sans:wght@400;500&amp;display=swap');
      .mono { font-family: 'JetBrains Mono', monospace; }
      .sans { font-family: 'DM Sans', sans-serif; }
    </style>
    <clipPath id="card-clip">
      <rect width="520" height="240" rx="14"/>
    </clipPath>
    <clipPath id="left-panel-clip">
      <rect x="0" y="0" width="198" height="240"/>
    </clipPath>
  </defs>

  <g clip-path="url(#card-clip)">
    <rect width="520" height="240" rx="14" fill="#0d1117"/>
    <rect width="520" height="2" fill="#3B6D11"/>
    <line x1="200" y1="16" x2="200" y2="224" stroke="#21262d" stroke-width="1"/>

    <!-- Donut chart — arc lengths driven by DAYTIME_DEG, MORNING_DEG, EVENING_DEG, NIGHT_DEG placeholders -->
    <g clip-path="url(#left-panel-clip)">
      <!-- Track -->
      <circle cx="99" cy="122" r="58" fill="none" stroke="#161b22" stroke-width="20"/>
      <!-- Night -->
      <circle cx="99" cy="122" r="58" fill="none" stroke="#2d333b" stroke-width="20"
        stroke-dasharray="4.8 364" stroke-dashoffset="0"
        transform="rotate(-90 99 122)"/>
      <!-- Evening -->
      <circle cx="99" cy="122" r="58" fill="none" stroke="#639922" stroke-width="20"
        stroke-dasharray="30.1 364" stroke-dashoffset="-4.8"
        transform="rotate(-90 99 122)"/>
      <!-- Morning -->
      <circle cx="99" cy="122" r="58" fill="none" stroke="#97C459" stroke-width="20"
        stroke-dasharray="159.2 364" stroke-dashoffset="-34.9"
        transform="rotate(-90 99 122)"/>
      <!-- Daytime -->
      <circle cx="99" cy="122" r="58" fill="none" stroke="#3B6D11" stroke-width="20"
        stroke-dasharray="170.3 364" stroke-dashoffset="-194.1"
        transform="rotate(-90 99 122)"/>
      <!-- Center -->
      <circle cx="99" cy="122" r="44" fill="#0d1117"/>
      <text x="99" y="116" text-anchor="middle" class="mono" font-size="17" font-weight="600" fill="#e6edf3">46.74%</text>
      <text x="99" y="131" text-anchor="middle" class="sans" font-size="10" fill="#8b949e">daytime</text>
    </g>

    <text x="99" y="210" text-anchor="middle" class="sans" font-size="10" fill="#484f58">commits by time of day</text>

    <!-- Right panel -->
    <text x="220" y="40" class="mono" font-size="10" font-weight="500" fill="#484f58" letter-spacing="2">CODING STATS</text>
    <text x="220" y="74" class="mono" font-size="26" font-weight="600" fill="#e6edf3">982</text>
    <text x="220" y="92" class="sans" font-size="12" fill="#8b949e">total commits</text>

    <line x1="220" y1="108" x2="504" y2="108" stroke="#21262d" stroke-width="1"/>

    <!-- Daytime row -->
    <rect x="220" y="118" width="8" height="8" rx="2" fill="#3B6D11"/>
    <text x="235" y="127" class="sans" font-size="12" fill="#c9d1d9">Daytime</text>
    <text x="390" y="127" class="mono" font-size="11" font-weight="500" fill="#3B6D11">46.74%</text>
    <text x="458" y="127" class="mono" font-size="10" fill="#484f58">459</text>

    <!-- Morning row -->
    <rect x="220" y="138" width="8" height="8" rx="2" fill="#97C459"/>
    <text x="235" y="147" class="sans" font-size="12" fill="#c9d1d9">Morning</text>
    <text x="390" y="147" class="mono" font-size="11" fill="#8b949e">43.69%</text>
    <text x="458" y="147" class="mono" font-size="10" fill="#484f58">429</text>

    <!-- Evening row -->
    <rect x="220" y="158" width="8" height="8" rx="2" fill="#639922"/>
    <text x="235" y="167" class="sans" font-size="12" fill="#c9d1d9">Evening</text>
    <text x="390" y="167" class="mono" font-size="11" fill="#8b949e">8.25%</text>
    <text x="458" y="167" class="mono" font-size="10" fill="#484f58">81</text>

    <!-- Night row -->
    <rect x="220" y="178" width="8" height="8" rx="2" fill="#2d333b"/>
    <text x="235" y="187" class="sans" font-size="12" fill="#c9d1d9">Night</text>
    <text x="390" y="187" class="mono" font-size="11" fill="#8b949e">1.32%</text>
    <text x="458" y="187" class="mono" font-size="10" fill="#484f58">13</text>

    <line x1="220" y1="200" x2="504" y2="200" stroke="#21262d" stroke-width="1"/>

    <!-- Footer pills -->
    <rect x="220" y="210" width="96" height="16" rx="8" fill="#1a2d0e"/>
    <text x="268" y="221" text-anchor="middle" class="mono" font-size="9" fill="#97C459">peak: Thursday</text>

    <rect x="324" y="210" width="110" height="16" rx="8" fill="#0c1929"/>
    <text x="379" y="221" text-anchor="middle" class="mono" font-size="9" fill="#85B7EB">Europe / Berlin</text>
  </g>
</svg>
